<svg width="40" height="40" viewBox="0 0 40 40" fill="none" xmlns="http://www.w3.org/2000/svg">
<path fill-rule="evenodd" clip-rule="evenodd" d="M20 40C31.0457 40 40 31.0457 40 20C40 8.9543 31.0457 0 20 0C8.9543 0 0 8.9543 0 20C0 31.0457 8.9543 40 20 40ZM14.6674 10.4999C19.4044 7.62484 25.5126 8.99985 28.5044 13.6249C31.3715 18.3749 30.0003 24.5 25.388 27.5C23.7674 28.5 21.8976 29 20.0277 29C18.2825 29 16.5373 28.5 14.9168 27.625L14.5428 27.375L10.8031 28.375L11.8003 24.625L11.551 24.25C8.55923 19.6249 10.0551 13.3749 14.6674 10.4999ZM23.8921 24.625C24.7647 24.5 25.388 24 25.8866 23.25C26.1359 22.875 26.1359 22.3749 26.0113 21.9999C25.8866 21.8749 25.6373 21.7499 25.388 21.6249L23.3935 20.6249C23.1441 20.4999 23.0195 20.4999 22.7702 20.7499C22.5209 20.9999 21.8976 21.6249 21.7729 21.8749C21.6483 22.1249 21.3989 22.1249 21.1496 21.9999C20.277 21.6249 19.5291 21.1249 18.7811 20.4999C18.1578 19.8749 17.5346 19.1249 17.0359 18.3749C16.9113 18.1249 17.0359 17.8749 17.2852 17.7499C17.3476 17.6874 17.4099 17.5937 17.4722 17.4999C17.5346 17.4062 17.5969 17.3124 17.6592 17.2499C17.7839 17.1249 17.9085 16.8749 17.7839 16.6249C17.9085 16.4999 17.9085 16.2499 17.7839 16.1249C17.7839 16.028 17.4093 15.1047 17.1247 14.4033C17.0422 14.2 16.9673 14.0153 16.9113 13.8749C16.7866 13.3749 16.5373 13.3749 16.288 13.3749H15.6647C15.4154 13.3749 15.1661 13.4999 14.9168 13.7499C14.2935 14.3749 13.9195 15.2499 13.9195 16.2499C14.0442 17.3749 14.4181 18.4999 15.1661 19.3749C16.4126 21.2499 18.1578 22.875 20.277 23.875C22.4004 24.7266 23.1674 24.6716 23.6563 24.6366C23.7414 24.6305 23.8181 24.625 23.8921 24.625Z" fill="white"/>
</svg>
